<?xml version="1.0" standalone="no"?>
<!DOCTYPE svg PUBLIC "-//W3C//DTD SVG 20010904//EN"
 "http://www.w3.org/TR/2001/REC-SVG-20010904/DTD/svg10.dtd">
<svg version="1.0" xmlns="http://www.w3.org/2000/svg"
 width="1529.000000pt" height="1529.000000pt" viewBox="0 0 1529.000000 1529.000000"
 preserveAspectRatio="xMidYMid meet">
<metadata>
Created by potrace 1.11, written by Peter Selinger 2001-2013
</metadata>
<g transform="translate(0.000000,1529.000000) scale(0.100000,-0.100000)"
fill="#000000" stroke="none">
<path d="M9786 10368 c1 -194 2 -355 3 -358 1 -4 56 -5 96 -1 8 1 11 399 6
679 -1 32 -1 32 -54 32 l-52 0 1 -352z"/>
<path d="M11571 10365 c-1 -331 0 -355 17 -356 9 0 30 -2 45 -3 15 -1 32 3 36
9 5 5 8 166 8 358 l1 347 -53 0 -53 0 -1 -355z"/>
<path d="M2590 10680 c-23 -5 -26 -9 -25 -52 0 -25 3 -50 7 -53 4 -4 28 -8 53
-9 l46 -2 -3 60 c-3 56 -5 59 -28 60 -14 1 -36 -1 -50 -4z"/>
<path d="M7288 10679 c-6 -4 -11 -30 -12 -58 -1 -39 2 -51 14 -52 8 0 28 -2
43 -3 42 -3 50 7 51 62 l1 50 -43 4 c-24 2 -48 0 -54 -3z"/>
<path d="M13560 10680 l-34 -5 3 -50 c1 -27 7 -53 13 -56 9 -6 79 -2 86 6 6 6
9 94 3 102 -7 10 -25 10 -71 3z"/>
<path d="M10018 10592 c-15 -3 -18 -15 -18 -68 0 -61 -1 -64 -24 -64 -18 0
-25 -6 -27 -27 -7 -52 0 -73 27 -73 l24 0 0 -175 c0 -133 3 -175 13 -176 96
-8 93 -14 92 180 l-1 171 27 0 c30 0 35 9 35 60 -1 28 -5 35 -21 35 -35 1 -41
12 -40 74 1 49 -2 61 -14 62 -9 0 -25 2 -36 3 -11 1 -28 0 -37 -2z"/>
<path d="M14338 10592 c-20 -4 -21 -8 -19 -71 1 -47 -12 -73 -34 -65 -8 3 -14
-5 -16 -23 -7 -48 1 -72 24 -75 22 -3 22 -6 23 -171 0 -119 4 -171 12 -176 13
-8 77 -5 90 3 4 2 7 81 7 175 -1 165 0 171 20 171 32 0 40 12 40 55 0 37 -2
40 -31 45 -30 5 -30 6 -29 63 1 32 -2 60 -6 62 -11 7 -61 12 -81 7z"/>
<path d="M1084 10454 c-16 -9 -37 -23 -46 -31 -17 -15 -18 -14 -18 10 0 25 -3
27 -42 27 -24 0 -48 -4 -53 -8 -17 -11 -14 -442 2 -443 7 -1 24 -1 38 -1 58 0
55 -9 55 148 0 118 3 151 17 174 27 47 95 54 140 16 l28 -24 3 -149 c1 -81 4
-152 6 -158 2 -5 25 -10 52 -9 l49 1 0 157 0 158 30 25 c24 21 36 24 74 20 74
-8 81 -25 81 -204 0 -95 4 -153 10 -154 6 -1 21 -1 35 -1 70 0 64 -16 62 170
-2 167 -2 169 -30 211 -60 90 -172 104 -248 31 -38 -36 -41 -37 -52 -18 -32
53 -137 81 -193 52z"/>
<path d="M2461 10460 c-18 -4 -46 -18 -62 -29 l-29 -22 0 26 c0 25 -2 26 -50
24 -27 -2 -51 -7 -51 -13 -7 -59 -2 -436 6 -437 5 0 29 -1 53 -2 l42 -2 0 142
c0 81 5 152 11 166 15 32 59 57 103 57 l35 0 -2 47 c-3 51 -7 54 -56 43z"/>
<path d="M3946 10455 c-21 -7 -46 -21 -57 -31 -18 -16 -19 -16 -19 10 0 26 -2
26 -52 24 l-53 -3 0 -222 c0 -143 4 -223 10 -224 5 0 29 -2 53 -2 l42 -2 0
140 c0 77 3 150 6 162 4 13 22 32 41 44 45 28 105 21 142 -15 25 -25 25 -28
26 -176 0 -92 4 -150 10 -151 25 -3 88 1 93 6 9 9 4 299 -6 326 -35 90 -147
144 -236 114z"/>
<path d="M4761 10459 c-18 -4 -46 -17 -62 -28 l-29 -22 0 26 c0 23 -3 25 -50
25 l-50 0 -1 -42 c-2 -131 2 -402 6 -406 3 -3 25 -6 50 -6 33 -1 45 3 46 14 0
8 1 77 2 152 2 134 3 138 28 164 18 18 41 28 73 31 l46 6 0 47 c0 50 -2 51
-59 39z"/>
<path d="M5639 10460 c-14 -4 -38 -15 -52 -25 -26 -17 -32 -13 -29 16 1 3 -24
7 -54 8 l-54 2 0 -226 c0 -143 4 -225 10 -226 6 -1 21 -1 35 -1 68 0 63 -11
63 135 0 182 -1 175 27 202 35 36 98 35 133 -3 25 -27 25 -30 25 -180 -1 -167
-6 -154 62 -154 14 0 30 0 35 1 6 1 10 57 10 147 0 127 6 169 26 192 1 2 20
10 41 17 32 11 42 11 65 -1 47 -24 55 -55 53 -208 -1 -149 -1 -150 55 -150 56
0 56 -1 55 165 -2 169 -11 205 -61 253 -63 58 -166 55 -227 -7 l-29 -29 -31
29 c-49 46 -102 60 -158 43z"/>
<path d="M6957 10455 c-21 -7 -47 -21 -58 -31 -18 -16 -19 -16 -20 2 -1 10 -1
22 0 26 0 4 -23 7 -53 6 l-54 -2 -1 -223 c-1 -207 0 -223 16 -224 10 0 31 -2
46 -3 15 -1 32 3 36 9 5 5 8 71 8 146 0 83 5 144 12 157 15 27 61 52 98 52 31
0 91 -32 99 -53 3 -8 6 -81 7 -162 l2 -149 45 0 c25 0 50 3 55 6 14 9 10 278
-5 322 -32 97 -140 154 -233 121z"/>
<path d="M8208 10460 c-15 -4 -41 -18 -58 -30 -17 -12 -30 -18 -29 -13 6 34
-2 40 -51 42 -45 1 -50 -2 -51 -22 -3 -104 -1 -419 4 -423 8 -9 70 -11 87 -3
12 6 15 32 14 150 l-2 143 33 33 c24 24 42 33 65 33 39 0 96 -26 106 -48 4 -9
8 -82 9 -161 1 -92 6 -145 13 -150 6 -4 24 -6 39 -5 15 1 35 3 44 3 13 1 15
22 14 159 -2 160 -6 181 -48 234 -33 42 -136 73 -189 58z"/>
<path d="M9035 10460 c-103 -11 -201 -86 -223 -170 -29 -114 22 -210 141 -265
42 -20 64 -24 122 -21 69 4 124 18 126 33 8 82 0 146 -14 109 -8 -19 -57 -45
-94 -48 -161 -14 -247 151 -123 237 62 43 145 40 204 -6 29 -22 28 -24 28 46
0 19 -1 40 -1 45 -2 25 -98 48 -166 40z"/>
<path d="M10910 10457 c-19 -5 -45 -18 -57 -30 l-23 -20 0 27 c0 27 -1 28 -52
24 l-53 -3 -1 -223 c-1 -179 2 -222 13 -223 7 -1 24 -1 38 -1 58 0 55 -9 55
148 0 80 5 154 10 165 14 26 62 49 102 49 33 0 34 1 34 44 0 51 -11 58 -66 43z"/>
<path d="M12675 10455 c-91 -21 -154 -68 -186 -139 -66 -145 52 -306 229 -312
229 -9 364 213 224 368 -63 70 -173 105 -267 83z m144 -110 c41 -21 71 -70 71
-115 -1 -42 -16 -71 -50 -98 -129 -99 -317 21 -245 158 38 72 143 98 224 55z"/>
<path d="M483 10442 c-81 -44 -122 -103 -130 -188 -9 -89 30 -172 102 -217 73
-46 163 -47 230 -1 44 30 45 30 45 -1 0 -14 3 -25 8 -26 61 -6 92 -3 93 11 1
24 1 393 0 416 -1 18 -7 21 -51 20 -50 -1 -56 -6 -51 -43 3 -18 -14 -16 -29 3
-37 43 -158 58 -217 26z m182 -96 c87 -57 79 -187 -15 -234 -96 -47 -196 23
-187 131 9 100 120 157 202 103z"/>
<path d="M1837 10446 c-95 -35 -161 -118 -164 -205 -5 -178 200 -292 385 -215
36 15 112 80 112 96 0 14 -129 9 -153 -6 -27 -18 -79 -23 -129 -13 -35 7 -98
57 -98 78 0 5 86 9 205 9 l205 0 0 43 c-1 81 -51 155 -135 199 -51 27 -173 35
-228 14z m188 -102 c14 -9 34 -29 45 -44 l19 -27 -149 0 c-83 0 -150 3 -150 6
0 19 38 56 74 72 48 22 121 19 161 -7z"/>
<path d="M2569 10456 c-7 -6 -2 -439 5 -443 5 -3 28 -6 52 -7 l44 -1 0 227 0
228 -50 -1 c-27 -1 -51 -2 -51 -3z"/>
<path d="M2888 10440 c-85 -38 -145 -111 -152 -186 -14 -168 168 -292 349
-239 l50 14 0 65 0 65 -21 -20 c-47 -44 -134 -55 -193 -25 -109 57 -99 195 19
242 23 10 35 10 102 6 14 -1 40 -13 56 -27 17 -14 32 -25 34 -25 2 0 3 28 3
62 l-1 61 -39 14 c-52 18 -160 14 -207 -7z"/>
<path d="M3355 10453 c-56 -14 -124 -85 -146 -151 -25 -75 7 -193 66 -245 33
-30 98 -57 136 -57 43 0 123 26 140 46 17 21 29 17 29 -11 0 -25 3 -27 52 -27
54 -1 53 -7 51 223 -1 118 -2 216 -2 219 -1 3 -22 5 -47 5 -38 0 -48 -4 -54
-20 -4 -11 -6 -23 -3 -27 8 -14 -6 -8 -50 22 -37 25 -54 30 -98 29 -30 -1 -63
-4 -74 -6z m161 -109 c84 -55 74 -187 -17 -232 -22 -11 -48 -19 -57 -17 -9 2
-26 4 -36 4 -11 1 -36 19 -58 41 -33 36 -38 47 -38 88 0 111 115 175 206 116z"/>
<path d="M5011 10443 c-26 -9 -65 -36 -92 -63 -119 -119 -72 -296 97 -360 134
-50 291 7 345 125 70 151 -57 316 -241 314 -36 0 -85 -8 -109 -16z m208 -110
c109 -83 46 -234 -99 -236 -84 -1 -160 62 -160 133 0 55 47 111 109 131 42 13
113 0 150 -28z"/>
<path d="M6326 10435 c-86 -48 -134 -157 -112 -255 35 -152 204 -227 327 -145
46 30 52 31 44 5 -9 -27 21 -37 93 -31 9 1 12 53 12 225 l0 223 -52 -1 c-38
-2 -53 -6 -54 -16 -3 -43 -4 -44 -26 -23 -55 49 -162 57 -232 18z m201 -92
c33 -22 61 -85 57 -126 -8 -64 -72 -121 -133 -120 -102 2 -164 102 -119 193
37 74 126 98 195 53z"/>
<path d="M7279 10448 c-5 -71 -3 -417 3 -429 5 -12 17 -15 50 -12 24 3 45 6
47 8 3 4 5 365 2 428 -1 14 -10 17 -51 17 -33 0 -50 -4 -51 -12z"/>
<path d="M7584 10442 c-48 -23 -106 -88 -121 -137 -16 -50 -8 -135 16 -183 61
-120 222 -159 320 -76 l30 25 3 -33 c3 -34 -1 -33 81 -29 l23 1 -1 223 0 222
-50 0 c-47 0 -50 -2 -55 -28 l-5 -27 -38 27 c-51 36 -143 43 -203 15z m183
-97 c87 -57 78 -187 -16 -234 -125 -62 -246 94 -159 204 41 53 120 66 175 30z"/>
<path d="M9275 10297 c2 -157 3 -164 29 -205 29 -46 84 -80 146 -88 36 -5 51
-1 144 44 5 3 6 0 2 -6 -10 -17 19 -38 50 -36 16 1 36 3 44 3 13 1 15 33 15
226 l0 225 -52 0 c-29 0 -53 -3 -54 -7 0 -5 -1 -72 -2 -151 l-2 -144 -33 -29
c-23 -20 -43 -29 -68 -29 -41 0 -88 22 -100 47 -4 10 -9 81 -10 158 -1 77 -3
143 -3 148 -1 4 -25 7 -55 7 l-53 0 2 -163z"/>
<path d="M10210 10310 c0 -164 9 -202 57 -252 14 -15 48 -35 75 -44 68 -22
129 -11 172 32 15 14 16 13 16 -10 0 -21 5 -26 25 -27 14 -1 37 -1 53 -2 l27
-1 3 227 2 227 -54 0 -54 0 0 -67 c-2 -240 -1 -230 -25 -259 -18 -20 -35 -28
-75 -32 -47 -4 -54 -2 -82 26 -33 33 -31 23 -32 220 l-1 112 -54 0 -53 0 0
-150z"/>
<path d="M11126 10435 c-86 -48 -134 -157 -112 -255 35 -152 204 -227 327
-145 48 31 49 31 45 -2 -4 -27 -3 -28 45 -27 28 1 52 4 55 7 3 3 6 103 6 224
l1 218 -54 0 c-41 0 -54 -4 -55 -15 -3 -43 -4 -44 -26 -23 -55 49 -162 57
-232 18z m201 -92 c33 -22 61 -85 57 -126 -8 -64 -72 -121 -133 -120 -102 2
-164 102 -119 193 37 74 126 98 195 53z"/>
<path d="M12163 10447 c-44 -16 -73 -47 -82 -88 -10 -44 3 -90 31 -116 23 -21
105 -53 136 -53 26 0 62 -29 62 -50 0 -49 -102 -61 -160 -20 -36 25 -38 25
-78 -9 -32 -27 -32 -29 -15 -46 61 -62 211 -80 290 -36 46 26 77 80 69 121 -2
14 -5 30 -5 37 -2 24 -57 63 -111 78 -114 32 -140 54 -104 89 23 23 80 24 144
1 l37 -13 -1 51 c-2 40 -6 52 -21 58 -30 12 -156 9 -192 -4z"/>
<path d="M13230 10451 c-76 -24 -148 -90 -170 -156 -51 -154 101 -311 284
-292 28 3 63 11 79 18 26 12 27 16 27 78 -1 54 -3 63 -13 51 -68 -85 -223 -66
-267 33 -19 42 -15 78 15 123 46 70 176 79 248 16 16 -14 17 -11 17 46 0 60
-1 62 -32 75 -37 15 -150 20 -188 8z"/>
<path d="M13529 10381 c0 -42 -1 -141 -2 -219 -2 -119 1 -145 13 -151 17 -8
79 -6 87 3 5 5 7 286 4 419 -1 27 -3 28 -51 26 l-50 -3 -1 -75z"/>
<path d="M13844 10437 c-60 -29 -120 -96 -135 -151 -51 -190 175 -346 378
-261 37 16 113 81 113 97 0 14 -129 9 -153 -6 -27 -18 -79 -23 -129 -13 -36 8
-98 55 -98 76 0 8 63 11 205 11 l205 0 0 43 c0 52 -28 115 -66 151 -53 50
-103 69 -189 73 -69 4 -87 1 -131 -20z m202 -90 c36 -19 68 -53 60 -65 -6 -10
-286 -13 -286 -3 0 19 38 55 74 71 46 21 108 20 152 -3z"/>
<path d="M14518 10454 c-3 -3 35 -98 84 -212 l90 -207 -26 -81 c-14 -44 -26
-83 -26 -86 0 -3 24 -8 54 -10 l54 -3 32 95 c74 215 170 503 170 506 0 2 -24
4 -54 4 l-54 0 -16 -42 c-9 -24 -29 -83 -45 -131 -15 -48 -32 -88 -36 -88 -5
0 -31 53 -59 118 -28 65 -55 124 -59 131 -8 12 -98 18 -109 6z"/>
<path d="M243 9847 c6 -42 28 -148 35 -167 3 -8 7 -26 9 -40 2 -14 6 -32 10
-40 3 -8 8 -26 10 -40 2 -14 6 -32 10 -40 3 -8 8 -24 10 -35 6 -26 9 -37 15
-55 3 -8 11 -35 18 -60 17 -60 18 -64 17 -70 0 -3 5 -16 12 -28 7 -13 15 -36
17 -50 3 -15 10 -32 15 -38 5 -7 9 -16 8 -20 -1 -5 3 -22 9 -37 7 -16 10 -33
6 -38 -3 -5 -1 -9 3 -9 5 0 17 -24 27 -52 10 -29 37 -100 59 -158 23 -58 42
-107 42 -110 1 -3 19 -43 42 -90 22 -47 46 -100 54 -117 8 -18 18 -33 22 -33
5 0 6 -4 2 -9 -3 -5 2 -17 11 -25 8 -9 13 -16 10 -16 -5 0 10 -30 92 -185 15
-27 33 -56 39 -63 7 -7 13 -17 13 -22 0 -5 23 -46 52 -92 28 -46 56 -92 62
-103 17 -29 50 -79 57 -85 3 -3 14 -21 25 -40 10 -19 24 -41 31 -48 7 -7 20
-26 30 -42 9 -17 21 -30 25 -30 4 0 8 -5 8 -11 0 -12 59 -92 72 -97 5 -2 8 -8
8 -13 0 -5 6 -17 14 -26 8 -10 45 -56 82 -103 38 -47 72 -86 76 -88 4 -2 8 -7
8 -12 0 -5 12 -22 28 -38 15 -17 59 -65 97 -108 122 -136 350 -364 363 -364 7
0 10 -4 7 -10 -3 -5 -3 -10 2 -10 8 0 40 -28 128 -109 22 -20 65 -57 95 -81
30 -25 57 -47 60 -50 29 -29 121 -100 129 -100 6 0 11 -4 11 -8 0 -5 53 -46
118 -92 64 -47 120 -89 124 -95 5 -6 8 -6 8 0 0 6 5 2 11 -7 5 -10 17 -18 24
-18 8 0 15 -5 15 -12 0 -6 3 -8 6 -5 4 4 14 -1 23 -11 9 -9 28 -23 44 -31 15
-8 27 -18 27 -23 0 -5 5 -6 10 -3 6 3 10 1 10 -4 0 -6 7 -11 15 -11 8 0 15 -4
15 -10 0 -5 7 -10 15 -10 8 0 15 -3 15 -7 0 -5 10 -13 23 -19 12 -6 60 -34
107 -63 47 -29 110 -66 140 -83 30 -16 62 -33 70 -39 23 -15 273 -149 277
-149 2 0 50 -22 106 -49 246 -118 565 -245 832 -331 139 -45 286 -91 310 -96
6 -1 39 -10 75 -19 36 -9 72 -18 80 -20 8 -2 43 -10 77 -19 34 -9 106 -25 160
-37 54 -11 107 -22 118 -25 11 -2 35 -6 54 -9 18 -2 41 -7 50 -10 9 -2 30 -7
46 -9 17 -2 62 -9 100 -15 103 -17 115 -19 174 -26 30 -4 61 -8 70 -10 9 -1
48 -6 86 -9 39 -4 81 -9 95 -11 14 -2 66 -6 115 -10 50 -3 117 -8 150 -10 187
-14 582 -20 765 -10 74 3 268 16 320 20 19 2 69 6 110 9 41 4 86 8 100 11 14
2 50 7 80 10 30 3 69 8 85 10 17 3 46 7 65 9 19 3 58 10 87 15 29 6 74 13 100
17 39 5 353 68 388 78 6 2 28 7 50 11 55 12 55 12 58 15 1 1 9 3 17 5 8 2 42
11 74 20 33 8 67 17 75 19 39 7 131 40 131 48 0 4 -12 3 -27 -3 -14 -5 -32 -8
-39 -5 -7 3 -15 -1 -17 -8 -3 -8 -17 -12 -31 -11 -14 2 -26 0 -26 -4 0 -4 -14
-7 -30 -6 -16 1 -30 -2 -30 -7 0 -5 -4 -7 -8 -4 -4 2 -37 -2 -72 -9 -36 -7
-81 -16 -100 -18 -19 -3 -35 -6 -35 -7 0 -1 -16 -3 -35 -5 -19 -2 -53 -6 -75
-10 -22 -3 -58 -7 -80 -10 -22 -2 -62 -6 -88 -9 -26 -3 -52 -8 -57 -11 -5 -3
-11 -1 -15 5 -4 6 -11 8 -16 5 -47 -29 -530 -46 -884 -31 -177 8 -265 14 -405
30 -19 2 -60 7 -90 10 -30 3 -66 8 -80 11 -23 4 -50 8 -135 20 -16 3 -41 6
-55 8 -14 1 -29 5 -35 8 -5 3 -22 5 -37 4 -16 0 -28 2 -28 5 0 3 -8 6 -17 6
-10 1 -31 4 -48 7 -76 15 -93 19 -130 28 -22 5 -53 12 -70 15 -16 3 -37 8 -45
11 -18 7 -24 9 -70 17 -39 8 -64 13 -67 16 -2 2 -6 3 -10 4 -5 1 -26 7 -47 14
-22 6 -43 9 -48 6 -4 -3 -8 -1 -8 4 0 5 -15 13 -32 16 -79 16 -88 19 -88 28 0
5 -3 7 -8 4 -4 -2 -31 4 -59 14 -28 10 -54 15 -57 12 -3 -3 -6 0 -6 7 0 7 -4
10 -9 6 -5 -3 -16 1 -24 9 -8 8 -17 12 -20 9 -4 -3 -14 -2 -24 2 -10 5 -20 9
-23 9 -3 1 -11 5 -17 9 -7 5 -21 10 -30 12 -10 2 -29 8 -43 13 -14 5 -29 11
-35 12 -5 1 -19 7 -30 13 -11 6 -26 10 -32 9 -7 -2 -13 2 -13 8 0 6 -4 8 -10
5 -6 -3 -10 -1 -10 6 0 7 -3 9 -6 6 -4 -3 -16 -1 -28 5 -11 7 -23 13 -26 13
-3 1 -18 8 -35 15 -16 7 -32 14 -35 14 -3 1 -11 5 -17 9 -7 5 -13 5 -13 2 0
-4 -12 2 -27 13 -16 10 -34 17 -40 15 -7 -3 -13 0 -13 7 0 6 -4 8 -10 5 -6 -3
-10 -2 -10 4 0 8 -26 22 -50 26 -3 0 -19 8 -36 18 -17 9 -34 13 -38 10 -3 -4
-6 -2 -6 4 0 10 -36 26 -52 24 -5 -1 -8 3 -8 7 0 4 -16 14 -35 21 -19 7 -35
16 -35 21 0 5 -7 6 -17 3 -10 -4 -14 -2 -10 4 6 10 -27 27 -46 24 -4 -1 -7 4
-7 9 0 6 -7 10 -15 10 -8 0 -15 4 -15 10 0 5 -7 7 -15 4 -8 -4 -15 -1 -15 5 0
7 -8 15 -18 19 -30 12 -137 75 -143 85 -3 5 -10 8 -15 8 -5 -1 -17 6 -27 14
-9 8 -24 15 -32 15 -8 0 -15 4 -15 8 0 5 -16 17 -35 28 -19 10 -35 23 -35 27
0 5 -7 6 -16 3 -8 -3 -13 -2 -10 2 3 5 -11 16 -29 26 -19 11 -32 23 -29 28 3
5 2 8 -3 7 -17 -3 -53 14 -47 22 3 5 -1 9 -9 9 -7 0 -23 9 -35 20 -12 11 -26
20 -32 20 -5 0 -10 5 -10 10 0 6 -7 10 -15 10 -9 0 -18 7 -21 15 -4 8 -10 15
-15 15 -10 0 -25 11 -64 48 -13 12 -27 22 -30 22 -3 0 -17 11 -31 25 -14 14
-28 25 -32 25 -4 0 -25 17 -48 38 -56 51 -145 126 -156 130 -4 2 -8 10 -8 18
0 8 -4 13 -9 11 -4 -1 -59 49 -121 111 -62 61 -117 112 -122 112 -5 0 -7 4 -4
9 6 10 -41 61 -57 61 -6 0 -8 3 -4 6 3 3 -2 13 -11 23 -60 62 -90 100 -85 105
4 3 -1 6 -10 6 -9 0 -17 6 -17 13 0 7 -9 19 -20 27 -11 8 -20 19 -20 24 0 5
-10 17 -22 27 -11 11 -18 19 -15 19 4 0 -1 8 -10 18 -33 35 -53 62 -53 72 0 6
-4 10 -10 10 -5 0 -10 4 -10 10 0 9 -19 35 -47 65 -7 8 -13 18 -13 23 0 5 -11
21 -24 35 -13 14 -21 29 -18 32 4 3 2 9 -4 13 -9 7 -39 50 -60 87 -6 11 -21
38 -33 59 -13 22 -34 61 -48 88 -14 26 -29 48 -35 48 -5 0 -7 4 -3 9 3 5 1 12
-5 16 -5 3 -10 15 -10 26 0 10 -4 19 -9 19 -5 0 -16 17 -24 38 -9 20 -23 55
-33 77 -10 22 -18 42 -19 45 -1 3 -9 22 -18 42 -10 21 -17 40 -17 43 0 3 -9
24 -19 48 -21 45 -61 158 -66 186 -2 9 -4 18 -5 21 -1 3 -2 8 -1 13 0 4 -4 7
-10 7 -5 0 -8 4 -5 9 3 5 -1 27 -9 50 -8 23 -14 43 -15 46 0 3 0 6 -1 8 0 1
-2 10 -4 21 -2 10 -8 39 -14 65 -6 25 -12 58 -13 74 -1 15 -5 27 -8 27 -3 0
-6 10 -6 23 -1 12 -4 40 -8 62 -15 78 -28 239 -28 350 -1 65 11 271 17 305 1
8 6 36 9 62 8 56 35 47 -239 88 -110 17 -209 32 -220 34 -11 2 -42 7 -70 10
-27 4 -57 9 -65 11 -8 2 -31 6 -50 9 -59 9 -440 73 -530 90 -47 9 -101 18
-120 21 -19 3 -42 8 -50 10 -8 2 -31 6 -50 9 -19 3 -84 15 -145 26 -60 11
-157 30 -215 40 -58 11 -115 22 -128 25 -21 4 -23 1 -19 -28z"/>
<path d="M14973 9840 c-13 -5 -33 -11 -45 -12 -13 -2 -29 -7 -35 -11 -7 -5
-13 -6 -13 -3 0 3 -11 1 -24 -4 -13 -5 -43 -12 -67 -15 -24 -4 -47 -9 -52 -12
-4 -3 -20 -7 -35 -9 -49 -7 -77 -12 -77 -15 0 -1 -11 -2 -25 -3 -14 -1 -34 -5
-45 -9 -20 -6 -48 -12 -115 -23 -19 -3 -38 -8 -41 -9 -3 -2 -25 -7 -50 -10
-51 -7 -84 -13 -84 -15 0 -2 -24 -7 -72 -14 -21 -3 -49 -8 -63 -10 -14 -3 -41
-7 -61 -10 -20 -3 -42 -7 -50 -10 -8 -3 -32 -7 -54 -10 -22 -3 -52 -8 -66 -11
-14 -3 -41 -7 -60 -9 -19 -3 -34 -5 -34 -6 0 -1 -11 -3 -25 -5 -14 -2 -52 -8
-85 -14 -130 -23 -165 -28 -229 -36 -21 -2 -57 -7 -80 -11 -23 -3 -54 -8 -71
-9 -16 -2 -52 -7 -80 -11 -27 -4 -61 -8 -75 -8 -25 -1 -25 -2 -27 -96 -3 -92
-8 -179 -17 -250 -11 -84 -16 -117 -22 -155 -4 -22 -7 -50 -8 -62 0 -13 -3
-23 -6 -23 -3 0 -6 -8 -7 -17 -1 -22 -9 -69 -18 -103 -3 -14 -8 -36 -11 -50
-3 -14 -12 -47 -20 -75 -17 -56 -26 -94 -27 -112 0 -7 -4 -13 -8 -13 -5 0 -19
-48 -23 -82 -1 -3 -4 -10 -8 -14 -5 -4 -8 -16 -8 -26 0 -10 -4 -18 -8 -18 -4
0 -8 -9 -9 -19 -1 -10 -15 -50 -31 -89 -17 -39 -28 -73 -25 -76 4 -3 1 -6 -5
-6 -7 0 -11 -3 -10 -7 1 -5 -13 -39 -30 -76 -18 -38 -32 -73 -32 -78 0 -5 -5
-9 -10 -9 -6 0 -9 -3 -8 -7 2 -8 -42 -103 -52 -113 -3 -3 -14 -25 -25 -49 -11
-24 -24 -49 -30 -55 -5 -6 -21 -33 -35 -59 -46 -88 -51 -97 -61 -97 -5 0 -9
-5 -9 -11 0 -6 -9 -23 -20 -39 -11 -15 -17 -30 -13 -34 3 -3 2 -6 -4 -6 -5 0
-32 -33 -59 -72 -53 -80 -53 -79 -89 -123 -14 -16 -25 -36 -25 -43 0 -7 -4
-11 -9 -7 -5 3 -12 -3 -15 -12 -4 -10 -22 -36 -41 -58 -19 -22 -38 -45 -43
-50 -68 -93 -316 -352 -477 -499 -76 -70 -83 -76 -180 -156 -49 -41 -92 -77
-95 -80 -3 -3 -23 -18 -45 -35 -22 -16 -48 -38 -57 -49 -10 -10 -18 -16 -18
-12 0 4 -15 -4 -32 -18 -44 -35 -47 -38 -88 -66 -19 -13 -41 -30 -48 -37 -6
-6 -21 -14 -31 -18 -11 -3 -22 -12 -25 -20 -3 -8 -11 -15 -18 -15 -7 0 -28
-13 -47 -29 -19 -17 -38 -28 -43 -25 -4 3 -8 1 -8 -3 0 -5 -16 -17 -35 -27
-19 -11 -35 -22 -35 -26 0 -5 -11 -11 -25 -14 -14 -4 -25 -11 -25 -16 0 -6 -4
-10 -9 -10 -5 0 -46 -22 -90 -50 -44 -28 -85 -50 -90 -50 -5 0 -16 -6 -23 -14
-16 -15 -101 -60 -107 -57 -2 2 -7 -2 -10 -7 -3 -5 -31 -22 -61 -38 -30 -15
-58 -33 -62 -38 -4 -6 -8 -8 -8 -4 0 4 -43 -16 -95 -43 -52 -27 -95 -46 -95
-42 0 4 -5 0 -11 -10 -6 -9 -14 -15 -20 -12 -5 4 -9 1 -9 -4 0 -6 -3 -10 -7
-9 -5 1 -33 -9 -63 -23 -30 -14 -107 -48 -170 -75 -63 -27 -118 -53 -122 -59
-4 -5 -8 -7 -8 -3 0 6 -133 -44 -208 -78 -18 -8 -36 -13 -41 -9 -5 3 -11 0
-13 -5 -2 -6 -12 -13 -23 -15 -11 -2 -21 -4 -22 -5 -2 -2 -6 -3 -10 -5 -5 -1
-21 -7 -36 -13 -16 -7 -35 -12 -43 -12 -8 0 -14 -4 -14 -9 0 -4 -10 -8 -22 -7
-13 1 -38 -7 -57 -16 -19 -10 -38 -15 -42 -12 -5 3 -9 1 -9 -4 0 -6 -16 -13
-36 -17 -20 -3 -48 -11 -63 -17 -14 -6 -29 -11 -33 -10 -4 1 -23 -5 -42 -13
-20 -9 -36 -12 -36 -9 0 4 -7 0 -17 -7 -9 -8 -18 -13 -20 -11 -1 1 -4 2 -5 1
-2 0 -14 -2 -27 -5 -14 -2 -30 -9 -36 -14 -7 -5 -15 -7 -18 -4 -3 3 -12 2 -19
-2 -7 -5 -21 -9 -30 -10 -10 -1 -20 -3 -23 -4 -3 -1 -9 -4 -15 -5 -5 -1 -11
-3 -12 -4 -2 -2 -14 -5 -28 -7 -14 -3 -43 -10 -65 -16 -22 -6 -47 -12 -55 -14
-8 -1 -57 -13 -107 -27 -59 -15 -93 -20 -93 -13 0 8 -3 7 -8 0 -6 -10 -54 -23
-142 -38 -14 -3 -26 -5 -27 -7 -5 -3 -121 -22 -133 -21 -3 0 -10 -4 -17 -9 -7
-7 -14 -6 -18 1 -5 8 -11 8 -20 0 -8 -7 -19 -9 -25 -5 -5 3 -10 2 -10 -2 0 -5
-10 -9 -22 -10 -13 0 -36 -3 -53 -7 -51 -10 -119 -19 -152 -20 -18 -1 -33 -3
-33 -6 0 -4 -10 -7 -22 -7 -95 -5 -128 -8 -128 -13 0 -3 -10 -5 -22 -6 -61 -2
-147 -13 -157 -18 -6 -4 -11 -2 -11 4 0 6 -5 8 -12 3 -7 -4 -29 -8 -48 -10
-19 -1 -69 -4 -110 -7 -164 -12 -292 -18 -442 -19 -86 -1 -154 -5 -151 -9 2
-5 -7 -4 -21 2 -16 6 -27 6 -31 -1 -4 -5 -11 -6 -17 -2 -17 10 -78 10 -78 0 0
-5 -6 -4 -14 2 -11 9 -15 9 -19 -1 -4 -10 -6 -10 -6 -1 -1 9 -8 10 -25 3 -13
-5 -27 -6 -31 -2 -4 4 -41 7 -83 7 -42 1 -83 4 -89 8 -7 5 -13 4 -13 -1 0 -5
-17 -7 -37 -3 -21 3 -66 6 -100 6 -35 0 -63 2 -63 5 0 3 -37 6 -83 7 -45 1
-102 5 -127 8 -66 9 -141 16 -175 16 -16 0 -33 6 -37 12 -6 9 -8 9 -8 -1 0 -7
-4 -11 -8 -8 -4 2 -46 9 -92 16 -129 17 -154 20 -176 24 -11 2 -47 8 -79 12
-64 9 -74 10 -77 14 -2 1 -14 3 -28 5 -14 2 -41 5 -60 9 -19 3 -53 8 -75 11
-22 4 -47 9 -55 12 -14 5 -26 8 -87 17 -16 3 -28 5 -28 6 0 2 -15 5 -60 13
-16 3 -40 8 -53 11 -60 15 -122 28 -139 29 -7 0 -13 4 -13 9 0 4 -12 8 -27 7
l-28 0 25 -10 c14 -6 32 -12 40 -14 8 -2 27 -8 43 -14 15 -6 27 -8 27 -5 0 4
6 2 13 -4 7 -6 24 -12 37 -14 14 -2 30 -7 36 -10 6 -4 25 -9 43 -10 17 -1 31
-6 31 -11 0 -5 6 -7 14 -4 8 3 17 3 20 -1 4 -3 12 -7 19 -9 7 -1 28 -7 47 -12
53 -15 192 -51 220 -57 14 -2 39 -9 55 -14 17 -5 41 -11 55 -13 14 -2 32 -6
40 -10 14 -5 115 -26 150 -30 8 -2 20 -6 26 -9 6 -4 27 -8 47 -10 21 -1 37 -5
37 -8 0 -3 12 -5 28 -5 15 1 33 -3 40 -8 6 -5 12 -6 12 -3 0 4 10 2 21 -5 17
-9 20 -8 14 2 -6 8 -4 10 6 3 17 -10 29 -13 129 -28 25 -4 65 -12 90 -18 25
-5 63 -12 85 -14 22 -2 80 -11 128 -19 49 -8 93 -13 98 -10 5 4 9 3 9 -2 0 -4
12 -8 28 -9 15 -1 52 -4 82 -8 30 -4 75 -9 100 -11 25 -2 45 -4 45 -5 0 -3 94
-11 157 -13 32 -1 58 -4 58 -7 0 -3 33 -7 73 -9 85 -4 142 -8 142 -11 0 -3
192 -10 443 -14 144 -3 266 -7 271 -10 4 -3 11 -3 14 0 3 4 82 8 174 10 248 6
328 10 341 18 6 3 13 2 17 -4 4 -6 11 -7 17 -4 6 4 29 9 52 11 60 5 174 13
229 15 26 1 47 5 47 8 0 3 24 5 53 5 28 0 56 2 62 4 5 3 21 6 35 7 71 6 140
14 182 22 26 5 50 7 53 4 3 -3 5 0 5 7 0 8 5 9 19 1 11 -5 22 -6 25 -1 3 5 16
9 28 9 20 0 165 24 288 48 19 3 44 8 55 9 11 2 20 4 20 5 0 1 34 7 78 13 13 2
28 6 34 10 6 4 18 4 27 1 9 -3 16 -2 16 3 0 5 6 10 13 10 21 1 80 12 115 22
18 5 35 10 37 10 3 1 6 1 8 2 1 0 11 2 22 4 11 2 30 6 43 9 12 3 30 8 40 10 9
2 62 16 117 31 55 14 107 28 115 30 8 2 15 4 15 5 0 1 11 4 60 14 6 1 16 5 23
9 6 5 12 6 12 2 0 -3 16 1 35 9 19 8 35 12 35 9 0 -3 7 0 15 7 8 7 15 10 15 7
0 -4 19 1 43 10 23 8 51 17 62 18 18 3 287 96 356 123 15 6 30 8 33 5 3 -4 6
-1 6 5 0 6 15 14 33 17 17 4 38 12 45 17 6 6 12 8 12 5 0 -3 36 10 79 28 44
19 82 31 85 28 3 -4 6 0 6 7 0 7 3 10 6 7 4 -3 16 -1 28 5 11 7 25 11 29 10 4
-1 10 5 13 13 3 8 10 13 14 10 5 -3 47 12 94 34 46 21 87 36 90 33 3 -3 6 0 6
6 0 7 5 12 11 12 6 0 33 11 60 25 27 13 49 22 49 19 0 -3 7 2 16 10 8 9 20 14
25 11 5 -4 9 -1 9 4 0 6 9 11 20 11 11 0 20 5 20 10 0 6 6 10 14 10 7 0 45 18
85 39 39 22 71 37 71 34 0 -3 9 2 21 13 12 10 22 17 23 16 2 -7 56 21 56 30 0
4 3 7 8 6 6 -2 106 51 197 104 17 10 41 24 55 30 14 7 31 18 38 25 7 7 18 13
23 13 5 0 18 8 29 18 11 9 23 15 27 14 3 -2 9 0 12 5 8 11 64 47 74 48 4 0 11
5 15 10 7 10 36 30 62 42 8 4 22 14 32 22 10 9 21 15 24 13 3 -2 14 6 23 17
10 11 21 18 25 14 3 -3 6 -1 6 5 0 7 6 12 14 12 8 0 21 6 28 13 26 25 87 67
96 67 6 0 12 7 16 15 3 8 12 15 21 15 8 0 15 5 15 10 0 6 7 10 16 10 8 0 13 4
10 9 -5 8 12 20 24 17 6 -1 11 3 75 59 22 19 48 37 58 41 9 3 17 9 17 13 0 4
19 21 43 38 23 17 52 39 64 49 54 47 64 54 75 54 6 0 8 3 5 7 -4 3 6 16 22 27
52 39 174 150 295 269 66 64 124 117 128 117 4 0 8 4 8 8 0 5 33 43 74 86 41
43 74 80 75 82 1 4 68 78 104 116 9 10 14 18 10 18 -3 0 3 8 13 18 10 9 37 40
59 67 22 28 43 52 47 53 5 2 8 8 8 13 0 6 12 22 26 37 14 15 33 39 42 55 9 15
20 27 24 27 4 0 8 6 8 14 0 7 7 19 15 26 9 7 46 59 83 114 37 56 70 103 75
104 4 2 7 7 7 12 0 5 34 63 75 129 41 67 75 126 75 131 0 6 4 10 9 10 5 0 14
12 20 28 5 15 24 52 42 82 17 30 54 100 82 155 28 55 55 102 59 103 4 2 8 10
8 18 0 8 18 51 39 97 37 78 78 175 134 314 14 34 22 64 19 67 -3 3 0 6 6 6 7
0 12 8 12 18 0 9 7 30 15 46 8 15 15 32 15 36 0 5 5 21 12 37 6 15 12 30 13
33 21 71 30 97 38 108 5 7 7 15 4 19 -3 3 0 18 9 34 8 16 12 29 8 29 -4 0 -2
6 4 13 6 6 13 29 17 50 4 20 11 37 15 37 4 0 7 8 7 18 -1 9 5 37 13 62 7 25
14 47 15 50 1 3 5 22 9 43 5 20 12 37 18 37 5 0 7 4 3 9 -6 11 24 141 34 141
3 0 7 20 8 45 2 47 -3 51 -44 35z"/>
<path d="M7280 9522 c-113 -16 -269 -79 -377 -154 -62 -42 -159 -134 -183
-174 -12 -19 -25 -34 -29 -34 -4 0 -6 70 -6 155 l1 155 -30 1 c-43 1 -497 1
-518 0 -17 -1 -18 -74 -18 -1395 l0 -1395 282 2 283 2 0 890 c0 490 4 896 9
903 4 7 9 25 12 40 7 40 60 144 102 200 78 103 199 183 328 216 37 10 115 17
205 18 l144 3 0 288 0 288 -90 -3 c-49 -1 -101 -4 -115 -6z"/>
<path d="M4330 9490 c-113 -26 -107 -24 -193 -60 -150 -62 -329 -198 -448
-341 -170 -203 -301 -494 -334 -744 -2 -11 -6 -40 -10 -65 -10 -61 -13 -334
-4 -390 4 -25 10 -67 13 -95 35 -262 183 -581 358 -773 177 -194 399 -323 628
-366 104 -20 304 -17 402 6 97 22 225 71 273 103 20 14 39 25 42 25 18 0 162
122 237 201 47 49 86 89 88 89 2 0 2 -90 2 -199 l-1 -199 283 -1 283 0 0 1390
-1 1389 -283 0 -283 0 0 -167 c0 -93 0 -184 -1 -203 l-1 -35 -27 34 c-79 100
-224 230 -312 279 -13 8 -38 22 -55 31 -52 29 -157 69 -231 86 -107 26 -319
28 -425 5z m403 -564 c257 -35 504 -256 597 -532 22 -64 25 -78 41 -164 10
-53 13 -233 5 -275 -2 -11 -6 -38 -10 -60 -21 -122 -89 -277 -166 -380 -151
-203 -350 -306 -578 -301 -334 9 -611 279 -703 685 -12 57 -16 251 -6 311 28
155 73 271 151 388 159 238 413 363 669 328z"/>
<path d="M8620 9500 c-232 -34 -419 -106 -620 -239 -104 -68 -307 -268 -372
-367 -102 -154 -173 -309 -213 -468 -33 -133 -36 -155 -40 -331 -3 -125 1
-183 15 -267 70 -393 315 -757 655 -973 138 -87 346 -168 490 -191 22 -3 60
-10 85 -14 48 -9 352 -6 410 4 152 27 291 73 412 135 l93 48 0 387 0 387 -20
-23 c-11 -14 -31 -39 -45 -58 -69 -93 -187 -188 -301 -243 -194 -93 -478 -98
-689 -13 -220 90 -401 276 -485 501 -25 65 -29 80 -45 170 -14 80 -4 260 20
343 92 325 338 558 664 628 65 14 232 20 281 10 11 -2 40 -7 64 -11 197 -33
367 -148 538 -363 18 -23 18 -14 18 362 0 241 -4 389 -10 395 -6 5 -51 30
-101 55 -106 53 -240 100 -350 122 -90 17 -372 27 -454 14z"/>
<path d="M10639 9506 c-2 -2 -33 -6 -69 -10 -157 -15 -363 -87 -487 -169 -158
-105 -263 -275 -291 -472 -13 -94 -7 -306 12 -386 32 -145 120 -288 232 -381
126 -104 266 -164 559 -239 219 -55 284 -82 354 -145 73 -66 92 -107 93 -207
2 -165 -80 -259 -254 -292 -168 -31 -357 3 -516 91 -71 40 -195 137 -241 189
-17 19 -32 35 -34 35 -6 0 -133 -115 -287 -260 -15 -14 -50 -47 -78 -73 -29
-27 -52 -52 -52 -56 0 -14 153 -155 231 -214 121 -90 347 -198 462 -221 12 -3
54 -11 92 -20 352 -75 702 -7 946 186 208 164 311 381 303 641 -7 246 -66 407
-197 541 -140 142 -285 209 -687 316 -186 49 -264 84 -324 143 -127 127 -78
342 94 419 73 33 120 40 252 40 93 -1 139 -6 247 -27 102 -20 232 -74 322
-135 32 -22 59 -40 61 -40 2 0 3 145 3 322 l0 322 -75 24 c-167 53 -304 75
-491 78 -97 2 -178 2 -180 0z"/>
<path d="M12797 9463 c-1 0 -51 -4 -112 -8 -60 -4 -117 -9 -125 -10 -8 -2 -71
-6 -140 -10 -69 -4 -128 -12 -131 -17 -4 -6 -2 -24 3 -40 6 -16 8 -32 5 -35
-4 -3 -2 -13 3 -23 5 -9 11 -32 14 -51 3 -19 7 -47 10 -64 3 -16 8 -67 10
-111 2 -45 7 -87 10 -93 4 -6 4 -11 -1 -11 -4 0 -9 -33 -9 -73 -3 -117 -7
-191 -13 -202 -3 -5 -6 -19 -7 -30 0 -11 -4 -32 -7 -46 -4 -14 -9 -44 -13 -65
-3 -21 -12 -64 -20 -94 -8 -30 -17 -62 -19 -70 -2 -8 -4 -15 -5 -15 -1 0 -4
-13 -6 -30 -3 -16 -8 -32 -12 -35 -8 -5 -13 -24 -15 -52 -1 -10 -5 -18 -9 -18
-4 0 -8 -8 -8 -18 0 -10 -5 -23 -12 -30 -7 -7 -9 -12 -5 -12 4 0 1 -13 -7 -29
-9 -16 -12 -31 -9 -35 4 -3 1 -6 -6 -6 -7 0 -10 -4 -6 -9 3 -5 1 -12 -5 -16
-5 -3 -10 -15 -10 -25 0 -10 -4 -20 -10 -22 -5 -1 -11 -13 -13 -26 -2 -13 -10
-28 -18 -33 -8 -5 -10 -9 -6 -9 4 0 -6 -25 -23 -56 -16 -30 -28 -60 -25 -65 4
-5 2 -9 -3 -9 -4 0 -23 -29 -42 -65 -19 -36 -38 -65 -42 -65 -5 0 -6 -4 -3
-10 3 -5 1 -10 -5 -10 -6 0 -8 -4 -5 -10 3 -5 1 -10 -5 -10 -6 0 -8 -4 -5 -10
3 -5 1 -10 -5 -10 -6 0 -9 -4 -6 -9 3 -5 -1 -12 -10 -15 -9 -4 -14 -9 -11 -12
6 -6 -4 -21 -37 -54 -12 -12 -15 -20 -7 -20 6 0 1 -11 -13 -23 -14 -13 -23
-27 -19 -30 3 -4 1 -7 -5 -7 -7 0 -12 -7 -12 -15 0 -8 -4 -15 -9 -15 -5 0 -11
-7 -14 -14 -12 -31 19 -3 62 55 25 32 49 59 54 59 4 0 5 5 2 10 -3 6 -2 10 3
10 5 0 33 31 61 70 29 38 58 75 65 83 7 7 24 29 37 48 25 38 116 171 153 224
12 17 24 32 29 33 4 2 7 7 7 12 0 4 18 37 40 71 21 35 54 89 72 119 17 30 36
58 42 62 6 4 8 8 4 8 -4 0 6 23 22 50 16 28 26 50 22 50 -4 0 -2 4 3 8 17 11
65 99 65 116 0 9 3 16 8 16 4 0 13 15 21 33 33 78 72 157 81 162 5 3 7 12 3
20 -3 8 -1 15 4 15 5 0 10 6 10 13 1 6 21 60 46 119 25 58 43 109 40 112 -4 3
0 6 7 6 7 0 11 3 8 6 -3 3 4 32 17 64 13 32 20 61 17 64 -3 3 0 6 6 6 7 0 11
3 10 8 -2 7 18 86 29 112 3 8 7 21 9 28 1 8 6 21 10 30 4 9 8 24 9 32 1 8 5
30 9 47 l8 33 -42 -3 c-23 -1 -42 -3 -43 -4z"/>
<path d="M11759 7413 c-13 -16 -12 -17 4 -4 9 7 17 15 17 17 0 8 -8 3 -21 -13z"/>
<path d="M8197 5973 c1 -192 2 -352 2 -356 1 -4 24 -7 53 -5 l51 3 -1 345 c0
190 -1 348 -1 353 -1 4 -25 7 -53 7 l-53 0 2 -347z"/>
<path d="M7743 6187 c-3 -6 -6 -33 -6 -61 1 -54 -10 -78 -32 -70 -8 3 -14 -5
-17 -23 -4 -33 4 -74 15 -74 35 3 35 4 35 -161 0 -90 1 -169 1 -175 1 -9 19
-13 54 -13 l52 0 -1 168 c0 92 2 172 4 179 2 6 12 10 22 8 25 -5 37 13 36 55
-1 31 -5 35 -32 38 l-30 3 1 67 0 66 -48 1 c-26 1 -51 -3 -54 -8z"/>
<path d="M7985 6192 c-3 -3 -5 -34 -5 -69 0 -63 -5 -70 -42 -64 -5 0 -8 -21
-8 -48 0 -47 1 -49 25 -46 l25 2 0 -178 0 -179 55 0 55 0 -1 133 c-1 233 -2
226 20 222 32 -6 42 22 32 89 0 4 -12 6 -26 4 -23 -5 -25 -2 -26 36 -2 107 1
100 -52 101 -26 1 -49 -1 -52 -3z"/>
<path d="M6302 6059 c-46 -9 -96 -39 -112 -69 -15 -29 -12 -98 6 -126 21 -31
57 -50 120 -64 61 -14 94 -35 94 -59 0 -49 -84 -60 -156 -21 l-41 23 -36 -28
c-20 -16 -33 -33 -31 -37 3 -5 23 -20 45 -33 85 -54 224 -51 285 6 36 34 48
85 32 134 -11 34 -21 44 -68 67 -30 14 -56 25 -58 23 -8 -8 -91 27 -96 41 -21
54 70 77 160 39 l31 -13 -1 50 c-1 33 -7 53 -17 58 -22 13 -107 17 -157 9z"/>
<path d="M6780 6058 c-62 -11 -99 -31 -142 -75 -112 -115 -80 -277 70 -350
108 -53 260 -28 332 54 17 19 29 37 26 41 -8 13 -123 4 -155 -12 -46 -24 -111
-23 -158 4 -38 21 -70 57 -59 67 2 3 94 6 203 6 l198 2 3 34 c4 40 -20 106
-51 141 -65 74 -165 107 -267 88z m111 -98 c37 -10 95 -62 86 -77 -6 -9 -272
-11 -282 -2 -10 10 36 59 69 74 38 16 79 18 127 5z"/>
<path d="M7308 6054 c-82 -25 -144 -102 -155 -194 -24 -201 188 -327 350 -209
27 19 28 20 27 2 -5 -40 -1 -43 50 -43 l50 0 1 38 c0 47 0 302 0 365 l-1 47
-50 0 c-49 0 -50 -1 -50 -31 l0 -30 -29 20 c-61 44 -124 55 -193 35z m158
-109 c110 -72 56 -245 -77 -245 -101 0 -163 117 -109 205 39 62 124 81 186 40z"/>
<path d="M8561 6054 c-75 -20 -135 -67 -166 -131 -32 -66 -32 -116 1 -182 63
-125 237 -175 371 -107 55 28 111 85 94 96 -19 11 -120 1 -151 -15 -42 -22
-115 -19 -159 6 -36 20 -67 56 -58 66 3 2 95 5 204 6 l198 2 3 39 c12 146
-169 263 -337 220z m129 -94 c37 -10 90 -53 90 -73 0 -9 -38 -12 -145 -12 -80
0 -145 3 -145 6 0 4 12 21 26 38 38 45 104 61 174 41z"/>
</g>
</svg>
